<mxfile host="Electron" modified="2024-05-30T13:02:57.810Z" agent="Mozilla/5.0 (Windows NT 10.0; Win64; x64) AppleWebKit/537.36 (KHTML, like Gecko) draw.io/24.4.8 Chrome/124.0.6367.207 Electron/30.0.6 Safari/537.36" etag="YLR9oWoo1htzp9Dsrshz" version="24.4.8" type="device">
  <diagram name="Page-1" id="c7558073-3199-34d8-9f00-42111426c3f3">
    <mxGraphModel dx="954" dy="664" grid="1" gridSize="10" guides="1" tooltips="1" connect="1" arrows="1" fold="1" page="1" pageScale="1" pageWidth="826" pageHeight="1169" background="none" math="0" shadow="0">
      <root>
        <mxCell id="0" />
        <mxCell id="1" parent="0" />
        <mxCell id="12" value="Patient" style="whiteSpace=wrap;align=center;verticalAlign=middle;fontStyle=0;strokeWidth=1;fillColor=#ffff88;strokeColor=#36393d;" parent="1" vertex="1">
          <mxGeometry x="10" y="300" width="90" height="50" as="geometry" />
        </mxCell>
        <mxCell id="36" value="&#xa;Log-in&#xa;Appointment Request&#xa;Upate Appointment status" style="edgeStyle=none;noEdgeStyle=1;strokeColor=#990000;strokeWidth=2;exitX=0.5;exitY=0;exitDx=0;exitDy=0;entryX=0.25;entryY=0;entryDx=0;entryDy=0;" parent="1" source="12" target="VYol_SFct8EX5VjaJl98-128" edge="1">
          <mxGeometry x="0.1228" width="100" height="100" relative="1" as="geometry">
            <mxPoint x="320" y="160" as="sourcePoint" />
            <mxPoint x="320" y="210" as="targetPoint" />
            <Array as="points">
              <mxPoint x="55" y="225" />
              <mxPoint x="220" y="225" />
            </Array>
            <mxPoint as="offset" />
          </mxGeometry>
        </mxCell>
        <mxCell id="VYol_SFct8EX5VjaJl98-124" value="Administrative Staff" style="whiteSpace=wrap;align=center;verticalAlign=middle;fontStyle=0;strokeWidth=1;fillColor=#ffff88;strokeColor=#36393d;" parent="1" vertex="1">
          <mxGeometry x="413" y="300" width="90" height="50" as="geometry" />
        </mxCell>
        <mxCell id="VYol_SFct8EX5VjaJl98-128" value="0" style="swimlane;fontStyle=0;childLayout=stackLayout;horizontal=1;startSize=20;horizontalStack=0;resizeParent=1;resizeParentMax=0;resizeLast=0;collapsible=1;marginBottom=0;whiteSpace=wrap;html=1;fillColor=#ffff88;strokeColor=#36393d;fontSize=14;" parent="1" vertex="1">
          <mxGeometry x="190" y="270" width="120" height="110" as="geometry" />
        </mxCell>
        <mxCell id="VYol_SFct8EX5VjaJl98-129" value="Online Clinic Reservation" style="text;strokeColor=#36393d;fillColor=#ffff88;align=center;verticalAlign=middle;spacingLeft=4;spacingRight=4;overflow=hidden;points=[[0,0.5],[1,0.5]];portConstraint=eastwest;rotatable=0;whiteSpace=wrap;html=1;fontSize=14;" parent="VYol_SFct8EX5VjaJl98-128" vertex="1">
          <mxGeometry y="20" width="120" height="90" as="geometry" />
        </mxCell>
        <mxCell id="VYol_SFct8EX5VjaJl98-135" value="" style="edgeStyle=none;noEdgeStyle=1;strokeColor=#990000;strokeWidth=2;entryX=0.5;entryY=1;entryDx=0;entryDy=0;exitX=0.292;exitY=0.999;exitDx=0;exitDy=0;exitPerimeter=0;" parent="1" source="VYol_SFct8EX5VjaJl98-129" edge="1">
          <mxGeometry width="100" height="100" relative="1" as="geometry">
            <mxPoint x="235.44" y="379.19" as="sourcePoint" />
            <mxPoint x="60" y="350" as="targetPoint" />
            <Array as="points">
              <mxPoint x="225" y="430" />
              <mxPoint x="60" y="430" />
            </Array>
          </mxGeometry>
        </mxCell>
        <mxCell id="VYol_SFct8EX5VjaJl98-137" value="&lt;div&gt;Appointment Confirmation&lt;br&gt;&lt;/div&gt;&lt;div&gt;Appointment Notification&lt;/div&gt;" style="edgeLabel;html=1;align=center;verticalAlign=middle;resizable=0;points=[];" parent="VYol_SFct8EX5VjaJl98-135" vertex="1" connectable="0">
          <mxGeometry x="-0.382" y="3" relative="1" as="geometry">
            <mxPoint x="-44" as="offset" />
          </mxGeometry>
        </mxCell>
        <mxCell id="VYol_SFct8EX5VjaJl98-143" value="Appointment request&#xa;Logs" style="edgeStyle=none;noEdgeStyle=1;strokeColor=#990000;strokeWidth=2;exitX=0.78;exitY=1.009;exitDx=0;exitDy=0;entryX=0.5;entryY=1;entryDx=0;entryDy=0;exitPerimeter=0;" parent="1" source="VYol_SFct8EX5VjaJl98-129" target="VYol_SFct8EX5VjaJl98-124" edge="1">
          <mxGeometry x="-0.1082" width="100" height="100" relative="1" as="geometry">
            <mxPoint x="310" y="310" as="sourcePoint" />
            <mxPoint x="450" y="355" as="targetPoint" />
            <Array as="points">
              <mxPoint x="284" y="430" />
              <mxPoint x="458" y="430" />
            </Array>
            <mxPoint as="offset" />
          </mxGeometry>
        </mxCell>
        <mxCell id="VYol_SFct8EX5VjaJl98-145" value="&#xa;Log-in&#xa;Appointment Approval&#xa;Update Service Information" style="edgeStyle=none;noEdgeStyle=1;strokeColor=#990000;strokeWidth=2;exitX=0.5;exitY=0;exitDx=0;exitDy=0;entryX=0.75;entryY=0;entryDx=0;entryDy=0;" parent="1" source="VYol_SFct8EX5VjaJl98-124" target="VYol_SFct8EX5VjaJl98-128" edge="1">
          <mxGeometry x="0.1001" width="100" height="100" relative="1" as="geometry">
            <mxPoint x="265" y="190" as="sourcePoint" />
            <mxPoint x="405" y="235" as="targetPoint" />
            <Array as="points">
              <mxPoint x="458" y="225" />
              <mxPoint x="280" y="225" />
            </Array>
            <mxPoint as="offset" />
          </mxGeometry>
        </mxCell>
      </root>
    </mxGraphModel>
  </diagram>
</mxfile>
